<mxfile host="Electron" agent="Mozilla/5.0 (Windows NT 10.0; Win64; x64) AppleWebKit/537.36 (KHTML, like Gecko) draw.io/28.2.5 Chrome/138.0.7204.251 Electron/37.6.1 Safari/537.36" version="28.2.5">
  <diagram name="P치gina-1" id="e6Ca5NFfM61QU_M5fWYv">
    <mxGraphModel dx="1855" dy="1764" grid="1" gridSize="10" guides="1" tooltips="1" connect="1" arrows="1" fold="1" page="1" pageScale="1" pageWidth="827" pageHeight="1169" math="0" shadow="0">
      <root>
        <mxCell id="0" />
        <mxCell id="1" parent="0" />
        <mxCell id="gGuLtg1lFeyNR1nvnydr-14" value="" style="edgeStyle=orthogonalEdgeStyle;rounded=0;orthogonalLoop=1;jettySize=auto;html=1;" edge="1" parent="1" source="gGuLtg1lFeyNR1nvnydr-1" target="gGuLtg1lFeyNR1nvnydr-13">
          <mxGeometry relative="1" as="geometry" />
        </mxCell>
        <mxCell id="gGuLtg1lFeyNR1nvnydr-28" style="edgeStyle=orthogonalEdgeStyle;rounded=0;orthogonalLoop=1;jettySize=auto;html=1;exitX=0.25;exitY=1;exitDx=0;exitDy=0;" edge="1" parent="1" source="gGuLtg1lFeyNR1nvnydr-1" target="gGuLtg1lFeyNR1nvnydr-16">
          <mxGeometry relative="1" as="geometry" />
        </mxCell>
        <mxCell id="gGuLtg1lFeyNR1nvnydr-29" style="edgeStyle=orthogonalEdgeStyle;rounded=0;orthogonalLoop=1;jettySize=auto;html=1;exitX=0.75;exitY=1;exitDx=0;exitDy=0;entryX=0.5;entryY=0;entryDx=0;entryDy=0;" edge="1" parent="1" source="gGuLtg1lFeyNR1nvnydr-1" target="gGuLtg1lFeyNR1nvnydr-15">
          <mxGeometry relative="1" as="geometry" />
        </mxCell>
        <mxCell id="gGuLtg1lFeyNR1nvnydr-31" style="edgeStyle=orthogonalEdgeStyle;rounded=0;orthogonalLoop=1;jettySize=auto;html=1;exitX=0;exitY=0.75;exitDx=0;exitDy=0;entryX=1;entryY=0;entryDx=0;entryDy=0;" edge="1" parent="1" source="gGuLtg1lFeyNR1nvnydr-1" target="gGuLtg1lFeyNR1nvnydr-30">
          <mxGeometry relative="1" as="geometry" />
        </mxCell>
        <mxCell id="gGuLtg1lFeyNR1nvnydr-39" style="edgeStyle=orthogonalEdgeStyle;rounded=0;orthogonalLoop=1;jettySize=auto;html=1;exitX=0;exitY=1;exitDx=0;exitDy=0;" edge="1" parent="1" source="gGuLtg1lFeyNR1nvnydr-1" target="gGuLtg1lFeyNR1nvnydr-38">
          <mxGeometry relative="1" as="geometry" />
        </mxCell>
        <mxCell id="gGuLtg1lFeyNR1nvnydr-44" style="edgeStyle=orthogonalEdgeStyle;rounded=0;orthogonalLoop=1;jettySize=auto;html=1;exitX=0;exitY=0.25;exitDx=0;exitDy=0;" edge="1" parent="1" source="gGuLtg1lFeyNR1nvnydr-1" target="gGuLtg1lFeyNR1nvnydr-43">
          <mxGeometry relative="1" as="geometry" />
        </mxCell>
        <mxCell id="gGuLtg1lFeyNR1nvnydr-1" value="Producto&amp;nbsp;" style="rounded=0;whiteSpace=wrap;html=1;" vertex="1" parent="1">
          <mxGeometry x="50" y="80" width="120" height="60" as="geometry" />
        </mxCell>
        <mxCell id="gGuLtg1lFeyNR1nvnydr-4" value="" style="edgeStyle=orthogonalEdgeStyle;rounded=0;orthogonalLoop=1;jettySize=auto;html=1;" edge="1" parent="1" source="gGuLtg1lFeyNR1nvnydr-2" target="gGuLtg1lFeyNR1nvnydr-3">
          <mxGeometry relative="1" as="geometry" />
        </mxCell>
        <mxCell id="gGuLtg1lFeyNR1nvnydr-9" style="edgeStyle=orthogonalEdgeStyle;rounded=0;orthogonalLoop=1;jettySize=auto;html=1;exitX=0;exitY=1;exitDx=0;exitDy=0;" edge="1" parent="1" source="gGuLtg1lFeyNR1nvnydr-2" target="gGuLtg1lFeyNR1nvnydr-7">
          <mxGeometry relative="1" as="geometry" />
        </mxCell>
        <mxCell id="gGuLtg1lFeyNR1nvnydr-11" style="edgeStyle=orthogonalEdgeStyle;rounded=0;orthogonalLoop=1;jettySize=auto;html=1;exitX=0.75;exitY=1;exitDx=0;exitDy=0;entryX=0.5;entryY=0;entryDx=0;entryDy=0;" edge="1" parent="1" source="gGuLtg1lFeyNR1nvnydr-2" target="gGuLtg1lFeyNR1nvnydr-6">
          <mxGeometry relative="1" as="geometry" />
        </mxCell>
        <mxCell id="gGuLtg1lFeyNR1nvnydr-12" style="edgeStyle=orthogonalEdgeStyle;rounded=0;orthogonalLoop=1;jettySize=auto;html=1;exitX=0.25;exitY=1;exitDx=0;exitDy=0;entryX=0.5;entryY=0;entryDx=0;entryDy=0;" edge="1" parent="1" source="gGuLtg1lFeyNR1nvnydr-2" target="gGuLtg1lFeyNR1nvnydr-8">
          <mxGeometry relative="1" as="geometry" />
        </mxCell>
        <mxCell id="gGuLtg1lFeyNR1nvnydr-18" style="edgeStyle=orthogonalEdgeStyle;rounded=0;orthogonalLoop=1;jettySize=auto;html=1;exitX=1;exitY=1;exitDx=0;exitDy=0;" edge="1" parent="1" source="gGuLtg1lFeyNR1nvnydr-2" target="gGuLtg1lFeyNR1nvnydr-17">
          <mxGeometry relative="1" as="geometry" />
        </mxCell>
        <mxCell id="gGuLtg1lFeyNR1nvnydr-33" value="" style="edgeStyle=orthogonalEdgeStyle;rounded=0;orthogonalLoop=1;jettySize=auto;html=1;" edge="1" parent="1" source="gGuLtg1lFeyNR1nvnydr-2" target="gGuLtg1lFeyNR1nvnydr-32">
          <mxGeometry relative="1" as="geometry" />
        </mxCell>
        <mxCell id="gGuLtg1lFeyNR1nvnydr-2" value="Clientes" style="rounded=0;whiteSpace=wrap;html=1;" vertex="1" parent="1">
          <mxGeometry x="460" y="80" width="120" height="60" as="geometry" />
        </mxCell>
        <mxCell id="gGuLtg1lFeyNR1nvnydr-3" value="Nombre" style="ellipse;whiteSpace=wrap;html=1;rounded=0;" vertex="1" parent="1">
          <mxGeometry x="480" y="210" width="80" height="80" as="geometry" />
        </mxCell>
        <mxCell id="gGuLtg1lFeyNR1nvnydr-5" value="Apellidos" style="ellipse;whiteSpace=wrap;html=1;rounded=0;" vertex="1" parent="1">
          <mxGeometry x="580" y="210" width="80" height="80" as="geometry" />
        </mxCell>
        <mxCell id="gGuLtg1lFeyNR1nvnydr-6" value="DNI" style="ellipse;whiteSpace=wrap;html=1;rounded=0;direction=south;" vertex="1" parent="1">
          <mxGeometry x="690" y="210" width="80" height="80" as="geometry" />
        </mxCell>
        <mxCell id="gGuLtg1lFeyNR1nvnydr-7" value="Direcci칩n" style="ellipse;whiteSpace=wrap;html=1;rounded=0;" vertex="1" parent="1">
          <mxGeometry x="374" y="210" width="80" height="80" as="geometry" />
        </mxCell>
        <mxCell id="gGuLtg1lFeyNR1nvnydr-8" value="Fecha nac." style="ellipse;whiteSpace=wrap;html=1;rounded=0;" vertex="1" parent="1">
          <mxGeometry x="270" y="210" width="80" height="80" as="geometry" />
        </mxCell>
        <mxCell id="gGuLtg1lFeyNR1nvnydr-10" style="edgeStyle=orthogonalEdgeStyle;rounded=0;orthogonalLoop=1;jettySize=auto;html=1;exitX=1;exitY=1;exitDx=0;exitDy=0;entryX=0.63;entryY=0.063;entryDx=0;entryDy=0;entryPerimeter=0;" edge="1" parent="1" source="gGuLtg1lFeyNR1nvnydr-2" target="gGuLtg1lFeyNR1nvnydr-5">
          <mxGeometry relative="1" as="geometry" />
        </mxCell>
        <mxCell id="gGuLtg1lFeyNR1nvnydr-13" value="Nombre&amp;nbsp;" style="ellipse;whiteSpace=wrap;html=1;rounded=0;" vertex="1" parent="1">
          <mxGeometry x="70" y="210" width="80" height="80" as="geometry" />
        </mxCell>
        <mxCell id="gGuLtg1lFeyNR1nvnydr-15" value="C칩digo" style="ellipse;whiteSpace=wrap;html=1;rounded=0;" vertex="1" parent="1">
          <mxGeometry x="160" y="210" width="80" height="80" as="geometry" />
        </mxCell>
        <mxCell id="gGuLtg1lFeyNR1nvnydr-16" value="Precio unitario" style="ellipse;whiteSpace=wrap;html=1;rounded=0;" vertex="1" parent="1">
          <mxGeometry x="-30" y="210" width="80" height="80" as="geometry" />
        </mxCell>
        <mxCell id="gGuLtg1lFeyNR1nvnydr-17" value="id_Clientes&lt;div&gt;(PK)&lt;/div&gt;" style="ellipse;whiteSpace=wrap;html=1;rounded=0;fillColor=#FFCCFF;" vertex="1" parent="1">
          <mxGeometry x="747" y="120" width="80" height="80" as="geometry" />
        </mxCell>
        <mxCell id="gGuLtg1lFeyNR1nvnydr-21" value="" style="edgeStyle=orthogonalEdgeStyle;rounded=0;orthogonalLoop=1;jettySize=auto;html=1;" edge="1" parent="1" source="gGuLtg1lFeyNR1nvnydr-19" target="gGuLtg1lFeyNR1nvnydr-20">
          <mxGeometry relative="1" as="geometry" />
        </mxCell>
        <mxCell id="gGuLtg1lFeyNR1nvnydr-24" style="edgeStyle=orthogonalEdgeStyle;rounded=0;orthogonalLoop=1;jettySize=auto;html=1;exitX=0.75;exitY=1;exitDx=0;exitDy=0;entryX=0.5;entryY=0;entryDx=0;entryDy=0;" edge="1" parent="1" source="gGuLtg1lFeyNR1nvnydr-19" target="gGuLtg1lFeyNR1nvnydr-23">
          <mxGeometry relative="1" as="geometry" />
        </mxCell>
        <mxCell id="gGuLtg1lFeyNR1nvnydr-25" style="edgeStyle=orthogonalEdgeStyle;rounded=0;orthogonalLoop=1;jettySize=auto;html=1;exitX=0.25;exitY=1;exitDx=0;exitDy=0;" edge="1" parent="1" source="gGuLtg1lFeyNR1nvnydr-19" target="gGuLtg1lFeyNR1nvnydr-22">
          <mxGeometry relative="1" as="geometry" />
        </mxCell>
        <mxCell id="gGuLtg1lFeyNR1nvnydr-27" style="edgeStyle=orthogonalEdgeStyle;rounded=0;orthogonalLoop=1;jettySize=auto;html=1;exitX=0;exitY=0.75;exitDx=0;exitDy=0;entryX=0.5;entryY=0;entryDx=0;entryDy=0;" edge="1" parent="1" source="gGuLtg1lFeyNR1nvnydr-19" target="gGuLtg1lFeyNR1nvnydr-26">
          <mxGeometry relative="1" as="geometry" />
        </mxCell>
        <mxCell id="gGuLtg1lFeyNR1nvnydr-19" value="Proveedor" style="rounded=0;whiteSpace=wrap;html=1;" vertex="1" parent="1">
          <mxGeometry x="-260" y="80" width="120" height="60" as="geometry" />
        </mxCell>
        <mxCell id="gGuLtg1lFeyNR1nvnydr-20" value="NIF" style="ellipse;whiteSpace=wrap;html=1;rounded=0;" vertex="1" parent="1">
          <mxGeometry x="-280" y="200" width="80" height="80" as="geometry" />
        </mxCell>
        <mxCell id="gGuLtg1lFeyNR1nvnydr-22" value="Nombre" style="ellipse;whiteSpace=wrap;html=1;rounded=0;" vertex="1" parent="1">
          <mxGeometry x="-380" y="200" width="80" height="80" as="geometry" />
        </mxCell>
        <mxCell id="gGuLtg1lFeyNR1nvnydr-23" value="Direcci칩n" style="ellipse;whiteSpace=wrap;html=1;rounded=0;" vertex="1" parent="1">
          <mxGeometry x="-180" y="200" width="80" height="80" as="geometry" />
        </mxCell>
        <mxCell id="gGuLtg1lFeyNR1nvnydr-26" value="id_Proveedor" style="ellipse;whiteSpace=wrap;html=1;rounded=0;fillColor=#FFCCFF;" vertex="1" parent="1">
          <mxGeometry x="-480" y="200" width="80" height="80" as="geometry" />
        </mxCell>
        <mxCell id="gGuLtg1lFeyNR1nvnydr-30" value="id_Producto&lt;div&gt;(PK)&lt;/div&gt;" style="ellipse;whiteSpace=wrap;html=1;rounded=0;fillColor=#FFCCFF;" vertex="1" parent="1">
          <mxGeometry x="-80" y="130" width="80" height="80" as="geometry" />
        </mxCell>
        <mxCell id="gGuLtg1lFeyNR1nvnydr-34" style="edgeStyle=orthogonalEdgeStyle;rounded=0;orthogonalLoop=1;jettySize=auto;html=1;exitX=0;exitY=0.5;exitDx=0;exitDy=0;entryX=1;entryY=0.5;entryDx=0;entryDy=0;" edge="1" parent="1" source="gGuLtg1lFeyNR1nvnydr-32" target="gGuLtg1lFeyNR1nvnydr-1">
          <mxGeometry relative="1" as="geometry" />
        </mxCell>
        <mxCell id="gGuLtg1lFeyNR1nvnydr-32" value="Compra" style="rhombus;whiteSpace=wrap;html=1;rounded=0;fillColor=#FFD966;" vertex="1" parent="1">
          <mxGeometry x="250" y="70" width="80" height="80" as="geometry" />
        </mxCell>
        <mxCell id="gGuLtg1lFeyNR1nvnydr-35" value="0:N O 1:N" style="text;strokeColor=none;align=center;fillColor=none;html=1;verticalAlign=middle;whiteSpace=wrap;rounded=0;" vertex="1" parent="1">
          <mxGeometry x="260" y="40" width="60" height="30" as="geometry" />
        </mxCell>
        <mxCell id="gGuLtg1lFeyNR1nvnydr-36" value="0 o 1" style="text;strokeColor=none;align=center;fillColor=none;html=1;verticalAlign=middle;whiteSpace=wrap;rounded=0;" vertex="1" parent="1">
          <mxGeometry x="500" y="30" width="60" height="30" as="geometry" />
        </mxCell>
        <mxCell id="gGuLtg1lFeyNR1nvnydr-37" value="N" style="text;strokeColor=none;align=center;fillColor=none;html=1;verticalAlign=middle;whiteSpace=wrap;rounded=0;" vertex="1" parent="1">
          <mxGeometry x="80" y="40" width="60" height="30" as="geometry" />
        </mxCell>
        <mxCell id="gGuLtg1lFeyNR1nvnydr-38" value="id_Clientes&lt;div&gt;(FK)&lt;/div&gt;" style="ellipse;whiteSpace=wrap;html=1;rounded=0;fillColor=#CDA2BE;" vertex="1" parent="1">
          <mxGeometry x="30" y="310" width="80" height="80" as="geometry" />
        </mxCell>
        <mxCell id="gGuLtg1lFeyNR1nvnydr-45" style="edgeStyle=orthogonalEdgeStyle;rounded=0;orthogonalLoop=1;jettySize=auto;html=1;exitX=0;exitY=0.5;exitDx=0;exitDy=0;entryX=1;entryY=0.5;entryDx=0;entryDy=0;" edge="1" parent="1" source="gGuLtg1lFeyNR1nvnydr-43" target="gGuLtg1lFeyNR1nvnydr-19">
          <mxGeometry relative="1" as="geometry" />
        </mxCell>
        <mxCell id="gGuLtg1lFeyNR1nvnydr-43" value="Suministro" style="rhombus;whiteSpace=wrap;html=1;fillColor=#FFD966;" vertex="1" parent="1">
          <mxGeometry x="-80" y="5" width="80" height="80" as="geometry" />
        </mxCell>
        <mxCell id="gGuLtg1lFeyNR1nvnydr-46" value="1:N" style="text;strokeColor=none;align=center;fillColor=none;html=1;verticalAlign=middle;whiteSpace=wrap;rounded=0;" vertex="1" parent="1">
          <mxGeometry x="-70" y="-30" width="60" height="30" as="geometry" />
        </mxCell>
        <mxCell id="gGuLtg1lFeyNR1nvnydr-48" value="1" style="text;strokeColor=none;align=center;fillColor=none;html=1;verticalAlign=middle;whiteSpace=wrap;rounded=0;" vertex="1" parent="1">
          <mxGeometry x="-230" y="40" width="60" height="30" as="geometry" />
        </mxCell>
        <mxCell id="gGuLtg1lFeyNR1nvnydr-50" style="edgeStyle=orthogonalEdgeStyle;rounded=0;orthogonalLoop=1;jettySize=auto;html=1;exitX=1;exitY=1;exitDx=0;exitDy=0;entryX=0.75;entryY=0;entryDx=0;entryDy=0;" edge="1" parent="1" source="gGuLtg1lFeyNR1nvnydr-49" target="gGuLtg1lFeyNR1nvnydr-1">
          <mxGeometry relative="1" as="geometry" />
        </mxCell>
        <mxCell id="gGuLtg1lFeyNR1nvnydr-49" value="id_Proveedor&lt;div&gt;(FK)&lt;/div&gt;" style="ellipse;whiteSpace=wrap;html=1;rounded=0;fillColor=#CDA2BE;" vertex="1" parent="1">
          <mxGeometry x="70" y="-60" width="80" height="80" as="geometry" />
        </mxCell>
      </root>
    </mxGraphModel>
  </diagram>
</mxfile>
